<svg id="outline" height="512" viewBox="0 0 512 512" width="512" xmlns="http://www.w3.org/2000/svg"><path d="m17.82373 493.085a8.00072 8.00072 0 0 0 6.17627 2.915h464a7.99957 7.99957 0 0 0 7.85107-9.53613l-72-368a7.99952 7.99952 0 0 0 -7.85107-6.46387h-64v-40a55.97221 55.97221 0 0 0 -76-52.29419 55.97221 55.97221 0 0 0 -76 52.29419v40h-104a7.99952 7.99952 0 0 0 -7.85107 6.46387l-72 368a8.00063 8.00063 0 0 0 1.6748 6.62113zm102.17627-74.67094 73.90369 61.58594h-147.80738zm289.41357-290.41406 68.86963 352h-255.69677l-68.86957-352h86.28314v48h-16v16h48v-16h-16v-48h80v48h-16v16h48v-16h-16v-48zm-133.41357-90.61865a40.01442 40.01442 0 0 1 20 34.61865v40h-40v-40a40.01442 40.01442 0 0 1 20-34.61865zm20-5.38135a40.04552 40.04552 0 0 1 40 40v40h-24v-40a55.82385 55.82385 0 0 0 -16.83917-39.97876c.28003-.00562.55774-.02124.83917-.02124zm-80 40a40.04552 40.04552 0 0 1 40-40c.28143 0 .55914.01562.83917.02124a55.82385 55.82385 0 0 0 -16.83917 39.97876v40h-24zm-113.41357 56h9.41357v136h16v-136h9.41357l66.41248 339.44165-75.82605-63.18848v-84.25317h-16v84.25317l-75.82611 63.18848z"/><path d="m112 280h16v16h-16z"/><path d="m328 312a40 40 0 1 0 -40-40 40.04552 40.04552 0 0 0 40 40zm0-64a24 24 0 1 1 -24 24 24.0275 24.0275 0 0 1 24-24z"/><path d="m264 336h40v16h-40z"/><path d="m320 336h80v16h-80z"/><path d="m248 368h96v16h-96z"/><path d="m360 368h64v16h-64z"/></svg>