<svg width="375" height="375" viewBox="0 0 375 375" fill="none" xmlns="http://www.w3.org/2000/svg">
<rect width="375" height="375" fill="white"/>
<g clip-path="url(#clip0_85_18)">
<path fill-rule="evenodd" clip-rule="evenodd" d="M178.801 34.1403C183.876 31.2919 190.124 31.2919 195.191 34.1403C220.265 48.218 295.719 90.593 320.801 104.671C325.875 107.512 328.999 112.775 328.999 118.472C328.999 146.627 328.999 231.37 328.999 259.525C328.999 265.222 325.875 270.485 320.801 273.333C295.727 287.411 220.272 329.786 195.191 343.864C190.116 346.712 183.868 346.712 178.801 343.864C153.727 329.786 78.2728 287.411 53.1911 273.333C48.124 270.485 45 265.229 45 259.532C45 231.377 45 146.635 45 118.479C45 112.782 48.124 107.519 53.1986 104.671C78.2653 90.593 153.734 48.218 178.801 34.1403Z" fill="#004482"/>
<path fill-rule="evenodd" clip-rule="evenodd" d="M47.272 266.784C45.284 264.123 45 261.596 45 258.194C45 230.203 45 145.947 45 117.948C45 112.281 48.1165 107.048 53.1762 104.222C78.1607 90.2266 153.361 48.0983 178.345 34.0954C183.405 31.262 190.258 31.3218 195.318 34.1552C220.302 48.1507 295.248 89.9201 320.233 103.916C322.251 105.052 323.79 106.42 325.165 108.222L47.272 266.784Z" fill="#659AD2"/>
<path fill-rule="evenodd" clip-rule="evenodd" d="M187 84.3354C244.749 84.3354 291.631 131.234 291.631 189.002C291.631 246.771 244.749 293.669 187 293.669C129.251 293.669 82.3683 246.771 82.3683 189.002C82.3683 131.234 129.251 84.3354 187 84.3354ZM187 136.669C215.87 136.669 239.315 160.114 239.315 189.002C239.315 217.883 215.87 241.335 187 241.335C158.129 241.335 134.684 217.883 134.684 189.002C134.684 160.114 158.121 136.669 187 136.669Z" fill="white"/>
<path fill-rule="evenodd" clip-rule="evenodd" d="M325.15 108.297C329.007 111.908 328.932 117.35 328.932 121.634C328.932 150.006 328.693 230.704 328.999 259.076C329.029 262.037 328.05 265.154 326.585 267.502L183.958 189.002L325.15 108.297Z" fill="#00599C"/>
</g>
<defs>
<clipPath id="clip0_85_18">
<rect width="284" height="314" fill="white" transform="translate(45 32)"/>
</clipPath>
</defs>
</svg>
