<svg width="375" height="375" viewBox="0 0 375 375" fill="none" xmlns="http://www.w3.org/2000/svg">
<rect width="375" height="375" fill="white"/>
<path d="M151.957 237.402C151.957 237.402 141.607 243.413 159.323 245.447C180.785 247.893 191.754 247.542 215.405 243.071C215.405 243.071 221.623 246.965 230.307 250.338C177.287 273.033 110.313 249.023 151.957 237.402Z" fill="#5382A1"/>
<path d="M145.478 207.786C145.478 207.786 133.87 216.368 151.599 218.2C174.525 220.562 192.631 220.755 223.96 214.73C223.96 214.73 228.293 219.118 235.107 221.517C171.003 240.239 99.6023 222.993 145.478 207.786Z" fill="#5382A1"/>
<path d="M200.096 157.548C213.16 172.57 196.664 186.088 196.664 186.088C196.664 186.088 229.836 168.985 214.601 147.568C200.373 127.595 189.462 117.672 248.531 83.4563C248.531 83.4563 155.811 106.585 200.096 157.548Z" fill="#F8981D"/>
<path d="M270.219 259.307C270.219 259.307 277.879 265.61 261.784 270.486C231.18 279.746 134.408 282.542 107.525 270.855C97.8612 266.656 115.984 260.83 121.684 259.607C127.629 258.319 131.027 258.559 131.027 258.559C120.28 250.998 61.562 273.406 101.201 279.824C209.302 297.333 298.259 271.939 270.219 259.307Z" fill="#5382A1"/>
<path d="M156.934 177.101C156.934 177.101 107.71 188.778 139.503 193.018C152.927 194.813 179.687 194.407 204.613 192.321C224.985 190.605 245.44 186.956 245.44 186.956C245.44 186.956 238.257 190.028 233.06 193.572C183.073 206.703 86.5082 200.594 114.308 187.164C137.818 175.813 156.934 177.101 156.934 177.101Z" fill="#5382A1"/>
<path d="M245.237 226.398C296.051 200.026 272.557 174.682 256.158 178.097C252.139 178.932 250.346 179.656 250.346 179.656C250.346 179.656 251.839 177.322 254.689 176.311C287.13 164.92 312.08 209.908 244.216 227.727C244.216 227.727 245.002 227.025 245.237 226.398Z" fill="#5382A1"/>
<path d="M214.601 28.2073C214.601 28.2073 242.743 56.3232 187.91 99.5576C143.94 134.239 177.884 154.013 187.892 176.606C162.226 153.478 143.391 133.118 156.027 114.169C174.574 86.3537 225.956 72.8677 214.601 28.2073Z" fill="#F8981D"/>
<path d="M161.927 297.859C210.702 300.978 285.602 296.129 287.376 273.079C287.376 273.079 283.966 281.817 247.066 288.757C205.435 296.581 154.09 295.668 123.637 290.653C123.637 290.652 129.871 295.806 161.927 297.859Z" fill="#5382A1"/>
</svg>
