<svg width="375" height="375" viewBox="0 0 375 375" fill="none" xmlns="http://www.w3.org/2000/svg">
<rect width="375" height="375" fill="white"/>
<g clip-path="url(#clip0_85_11)">
<path d="M185.555 311.001C184.436 311.001 183.325 310.707 182.344 310.141L172.124 304.079C170.597 303.224 171.342 302.921 171.846 302.747C173.881 302.033 174.294 301.872 176.466 300.636C176.695 300.505 176.994 300.551 177.227 300.689L185.079 305.357C185.363 305.511 185.765 305.511 186.028 305.357L216.643 287.653C216.926 287.492 217.11 287.162 217.11 286.824V251.432C217.11 251.079 216.926 250.764 216.636 250.587L186.034 232.899C185.75 232.73 185.375 232.73 185.091 232.899L154.495 250.587C154.199 250.756 154.01 251.086 154.01 251.424V286.817C154.01 287.154 154.194 287.477 154.485 287.638L162.869 292.49C167.421 294.77 170.203 292.083 170.203 289.381V254.449C170.203 253.95 170.593 253.566 171.091 253.566H174.969C175.452 253.566 175.85 253.95 175.85 254.449V289.396C175.85 295.477 172.54 298.97 166.785 298.97C165.014 298.97 163.62 298.97 159.727 297.05L151.696 292.413C149.711 291.262 148.485 289.112 148.485 286.817V251.424C148.485 249.121 149.711 246.971 151.696 245.835L182.341 228.124C184.28 227.026 186.855 227.026 188.778 228.124L219.385 245.843C221.362 246.987 222.596 249.129 222.596 251.432V286.824C222.596 289.12 221.362 291.262 219.385 292.413L188.778 310.125C187.797 310.693 186.686 310.985 185.552 310.985" fill="#689F63"/>
<path d="M195.012 286.613C181.616 286.613 178.808 280.453 178.808 275.286C178.808 274.795 179.203 274.403 179.694 274.403H183.648C184.085 274.403 184.453 274.722 184.522 275.154C185.12 279.191 186.898 281.227 194.998 281.227C201.45 281.227 204.194 279.767 204.194 276.339C204.194 274.366 203.412 272.899 193.388 271.916C185.005 271.087 179.825 269.237 179.825 262.519C179.825 256.332 185.036 252.646 193.764 252.646C203.565 252.646 208.424 256.055 209.037 263.379C209.06 263.633 208.968 263.878 208.799 264.063C208.631 264.239 208.393 264.347 208.148 264.347H204.171C203.757 264.347 203.397 264.055 203.312 263.656C202.354 259.41 200.04 258.051 193.749 258.051C186.706 258.051 185.886 260.508 185.886 262.351C185.886 264.585 186.852 265.237 196.354 266.496C205.765 267.748 210.232 269.513 210.232 276.139C210.232 282.818 204.669 286.649 194.967 286.649M232.256 249.115H233.283C234.126 249.115 234.287 248.524 234.287 248.178C234.287 247.272 233.667 247.272 233.322 247.272H232.264L232.256 249.115ZM231.007 246.213H233.283C234.065 246.213 235.598 246.213 235.598 247.963C235.598 249.184 234.816 249.437 234.349 249.591C235.26 249.652 235.322 250.251 235.444 251.096C235.506 251.625 235.605 252.539 235.789 252.846H234.387C234.349 252.539 234.134 250.85 234.134 250.758C234.042 250.382 233.912 250.197 233.444 250.197H232.287V252.854H231.007V246.213ZM228.272 249.514C228.272 252.263 230.486 254.489 233.207 254.489C235.95 254.489 238.165 252.217 238.165 249.514C238.165 246.758 235.92 244.57 233.199 244.57C230.517 244.57 228.264 246.727 228.264 249.506M239.115 249.529C239.115 252.785 236.456 255.441 233.214 255.441C229.996 255.441 227.314 252.815 227.314 249.529C227.314 246.182 230.057 243.618 233.214 243.618C236.395 243.618 239.107 246.19 239.107 249.529" fill="#689F63"/>
<path fill-rule="evenodd" clip-rule="evenodd" d="M90.7525 172.518C90.7525 171.105 90.0092 169.808 88.7923 169.105L56.3338 150.396C55.7859 150.073 55.1721 149.905 54.5498 149.881H54.2142C53.5919 149.905 52.9781 150.073 52.421 150.396L19.9641 169.105C18.7548 169.812 18.0007 171.109 18.0007 172.522L18.072 222.916C18.072 223.614 18.4322 224.267 19.0452 224.612C19.643 224.981 20.394 224.981 20.9917 224.612L40.2878 213.542C41.5062 212.815 42.2495 211.532 42.2495 210.133V186.59C42.2495 185.186 42.9929 183.888 44.2075 183.189L52.4225 178.449C53.0325 178.096 53.7023 177.921 54.3843 177.921C55.0556 177.921 55.7407 178.095 56.3338 178.449L64.545 183.187C65.7604 183.886 66.5068 185.183 66.5068 186.588V210.129C66.5068 211.526 67.2601 212.816 68.4724 213.538L87.7562 224.601C88.3616 224.962 89.1149 224.962 89.718 224.601C90.3127 224.255 90.6897 223.603 90.6897 222.904L90.7525 172.518ZM243.916 198.756C243.916 199.107 243.73 199.431 243.426 199.605L232.277 206.043C231.975 206.217 231.601 206.217 231.299 206.043L220.149 199.605C219.842 199.431 219.658 199.106 219.658 198.756V185.861C219.658 185.509 219.842 185.186 220.141 185.009L231.284 178.56C231.59 178.383 231.966 178.383 232.272 178.56L243.422 185.009C243.729 185.186 243.913 185.509 243.913 185.861L243.916 198.756ZM246.928 103.249C246.32 102.91 245.579 102.919 244.979 103.27C244.381 103.623 244.011 104.268 244.011 104.966V154.869C244.011 155.36 243.751 155.813 243.326 156.059C242.905 156.304 242.38 156.304 241.955 156.059L233.824 151.367C232.613 150.665 231.122 150.665 229.906 151.367L197.437 170.14C196.224 170.839 195.475 172.136 195.475 173.534V211.091C195.475 212.496 196.224 213.786 197.437 214.492L229.906 233.278C231.119 233.977 232.612 233.977 233.828 233.278L266.297 214.484C267.508 213.778 268.259 212.488 268.259 211.083V117.482C268.259 116.057 267.485 114.746 266.243 114.05L246.928 103.249ZM355.051 185.522C356.257 184.82 357 183.524 357 182.127V173.025C357 171.624 356.257 170.332 355.048 169.627L322.786 150.864C321.567 150.158 320.073 150.158 318.854 150.864L286.393 169.635C285.175 170.341 284.431 171.631 284.431 173.036V210.578C284.431 211.991 285.19 213.296 286.408 213.995L318.663 232.412C319.851 233.096 321.307 233.103 322.51 232.435L342.021 221.572C342.634 221.227 343.024 220.574 343.024 219.868C343.024 219.161 342.649 218.501 342.036 218.156L309.375 199.377C308.762 199.032 308.387 198.379 308.387 197.68V185.903C308.387 185.2 308.754 184.552 309.367 184.202L319.529 178.329C320.134 177.976 320.878 177.976 321.483 178.329L331.652 184.202C332.258 184.548 332.633 185.2 332.633 185.899V195.158C332.633 195.856 333.009 196.509 333.614 196.862C334.219 197.207 334.97 197.207 335.576 196.854L355.051 185.522Z" fill="#333333"/>
<path fill-rule="evenodd" clip-rule="evenodd" d="M320.345 183.765C320.575 183.629 320.863 183.629 321.096 183.765L327.326 187.366C327.559 187.501 327.701 187.75 327.701 188.018V195.227C327.701 195.496 327.559 195.745 327.326 195.88L321.096 199.48C320.863 199.616 320.575 199.616 320.345 199.48L314.118 195.88C313.881 195.745 313.735 195.496 313.735 195.227V188.018C313.735 187.75 313.873 187.501 314.111 187.366L320.345 183.765Z" fill="#689F63"/>
<mask id="mask0_85_11" style="mask-type:alpha" maskUnits="userSpaceOnUse" x="106" y="151" width="74" height="84">
<path d="M140.5 152.443C142.047 151.55 143.953 151.55 145.5 152.443L176.873 170.557C178.42 171.45 179.373 173.1 179.373 174.887V211.113C179.373 212.9 178.42 214.55 176.873 215.443L145.5 233.557C143.953 234.45 142.047 234.45 140.5 233.557L109.127 215.443C107.58 214.55 106.627 212.9 106.627 211.113V174.887C106.627 173.1 107.58 171.45 109.127 170.557L140.5 152.443Z" fill="#D9D9D9"/>
</mask>
<g mask="url(#mask0_85_11)">
<path d="M105 146V233H179V146H105Z" fill="url(#paint0_linear_85_11)"/>
<path d="M211.924 166.55L120.95 121.876L74.3038 217.208L165.276 261.885L211.924 166.55Z" fill="url(#paint1_linear_85_11)"/>
</g>
</g>
<defs>
<linearGradient id="paint0_linear_85_11" x1="105.025" y1="189.502" x2="179.014" y2="189.502" gradientUnits="userSpaceOnUse">
<stop offset="0.16" stop-color="#6BBF47"/>
<stop offset="0.38" stop-color="#79B461"/>
<stop offset="0.47" stop-color="#75AC64"/>
<stop offset="0.7" stop-color="#659E5A"/>
<stop offset="0.9" stop-color="#3E863D"/>
</linearGradient>
<linearGradient id="paint1_linear_85_11" x1="166.41" y1="144.143" x2="119.629" y2="239.401" gradientUnits="userSpaceOnUse">
<stop offset="0.3" stop-color="#3E863D"/>
<stop offset="0.5" stop-color="#55934F"/>
<stop offset="0.8" stop-color="#5AAD45"/>
</linearGradient>
<clipPath id="clip0_85_11">
<rect width="339" height="208" fill="white" transform="translate(18 103)"/>
</clipPath>
</defs>
</svg>
