<svg width="375" height="375" viewBox="0 0 375 375" fill="none" xmlns="http://www.w3.org/2000/svg">
<rect width="375" height="375" fill="white"/>
<path d="M9.13208 198C9.13208 249.825 88.544 291.838 186.5 291.838C284.455 291.838 363.868 249.825 363.868 198C363.868 146.176 284.455 104.162 186.5 104.162C88.544 104.162 9.13208 146.176 9.13208 198Z" fill="url(#paint0_radial_85_15)"/>
<path d="M186.5 284.871C280.629 284.871 356.939 245.977 356.939 198C356.939 150.023 280.629 111.128 186.5 111.128C92.37 111.128 16.0605 150.023 16.0605 198C16.0605 245.977 92.37 284.871 186.5 284.871Z" fill="#777BB3"/>
<path d="M105.498 208.771C113.238 208.771 119.016 207.335 122.672 204.505C126.289 201.704 128.787 196.852 130.096 190.083C131.317 183.756 130.852 179.338 128.714 176.954C126.529 174.519 121.803 173.284 114.669 173.284H102.3L95.4431 208.771H105.498ZM65.0415 252.484C64.4673 252.484 63.922 252.225 63.557 251.779C63.1913 251.333 63.0431 250.746 63.1528 250.179L81.3258 156.139C81.5016 155.23 82.2939 154.573 83.2151 154.573H122.382C134.692 154.573 143.854 157.935 149.613 164.566C155.403 171.231 157.191 180.549 154.927 192.259C154.006 197.029 152.421 201.46 150.217 205.427C148.011 209.398 145.095 213.072 141.55 216.35C137.306 220.345 132.502 223.242 127.285 224.947C122.151 226.629 115.557 227.482 107.688 227.482H91.8281L87.299 250.917C87.1232 251.827 86.3316 252.484 85.4104 252.484H65.0415Z" fill="black"/>
<path d="M103.887 175.22H114.67C123.279 175.22 126.27 177.12 127.286 178.252C128.972 180.132 129.29 184.096 128.207 189.715C126.989 196.006 124.732 200.467 121.498 202.971C118.186 205.535 112.803 206.835 105.498 206.835H97.7777L103.887 175.22ZM122.383 152.637H83.2146C81.3721 152.637 79.7882 153.951 79.4367 155.77L61.2637 249.809C61.0443 250.944 61.3407 252.118 62.0713 253.01C62.8027 253.903 63.892 254.419 65.0416 254.419H85.4099C87.2529 254.419 88.8369 253.105 89.1884 251.286L93.4147 229.417H107.688C115.76 229.417 122.555 228.532 127.882 226.787C133.362 224.996 138.403 221.96 142.864 217.764C146.554 214.35 149.594 210.517 151.897 206.372C154.201 202.225 155.856 197.601 156.816 192.627C159.199 180.301 157.263 170.431 151.062 163.292C144.922 156.222 135.272 152.637 122.383 152.637ZM93.1081 210.706H105.498C113.71 210.706 119.827 209.15 123.846 206.039C127.866 202.926 130.577 197.732 131.986 190.452C133.333 183.463 132.719 178.531 130.144 175.658C127.565 172.785 122.408 171.348 114.67 171.348H100.714L93.1081 210.706M122.383 156.509C134.165 156.509 142.761 159.618 148.164 165.839C153.566 172.059 155.193 180.742 153.038 191.889C152.15 196.481 150.65 200.679 148.537 204.483C146.422 208.289 143.661 211.769 140.248 214.925C136.18 218.753 131.662 221.481 126.69 223.106C121.719 224.735 115.386 225.546 107.688 225.546H90.2411L85.4099 250.548H65.0416L83.2146 156.509H122.383" fill="white"/>
<path d="M201.629 227.482C201.054 227.482 200.509 227.224 200.144 226.777C199.778 226.331 199.63 225.745 199.739 225.177L207.778 183.568C208.543 179.611 208.354 176.771 207.248 175.571C206.57 174.837 204.535 173.607 198.518 173.607H183.955L173.848 225.915C173.672 226.825 172.879 227.482 171.958 227.482H151.75C151.176 227.482 150.631 227.224 150.265 226.777C149.9 226.331 149.751 225.744 149.861 225.177L168.034 131.137C168.21 130.228 169.002 129.572 169.923 129.572H190.131C190.706 129.572 191.251 129.83 191.616 130.275C191.982 130.722 192.13 131.308 192.021 131.876L187.635 154.573H203.302C215.238 154.573 223.331 156.69 228.045 161.043C232.85 165.485 234.349 172.587 232.502 182.154L224.046 225.915C223.871 226.825 223.079 227.482 222.157 227.482H201.629Z" fill="black"/>
<path d="M190.131 127.636H169.923C168.08 127.636 166.496 128.949 166.145 130.768L147.972 224.808C147.753 225.943 148.049 227.116 148.78 228.009C149.512 228.901 150.601 229.417 151.75 229.417H171.958C173.801 229.417 175.385 228.103 175.737 226.285L185.541 175.542H198.519C204.525 175.542 205.786 176.833 205.836 176.888C206.201 177.282 206.68 179.108 205.889 183.199L197.85 224.808C197.631 225.943 197.927 227.116 198.658 228.009C199.39 228.901 200.479 229.417 201.629 229.417H222.157C224 229.417 225.584 228.103 225.936 226.285L234.39 182.523C236.375 172.251 234.677 164.545 229.347 159.619C224.261 154.921 215.742 152.637 203.302 152.637H189.969L193.91 132.246C194.129 131.111 193.833 129.936 193.102 129.045C192.37 128.152 191.281 127.636 190.131 127.636ZM190.131 131.507L185.3 156.509H203.302C214.63 156.509 222.443 158.497 226.743 162.469C231.043 166.444 232.331 172.883 230.613 181.785L222.157 225.546H201.629L209.668 183.938C210.582 179.204 210.246 175.976 208.658 174.254C207.069 172.533 203.689 171.671 198.519 171.671H182.368L171.958 225.546H151.75L169.923 131.507H190.131Z" fill="white"/>
<path d="M264.476 208.771C272.216 208.771 277.994 207.335 281.65 204.505C285.267 201.705 287.765 196.852 289.075 190.083C290.296 183.756 289.831 179.338 287.693 176.954C285.507 174.519 280.782 173.284 273.648 173.284H261.279L254.422 208.771H264.476ZM224.021 252.484C223.447 252.484 222.901 252.225 222.536 251.779C222.171 251.333 222.022 250.746 222.132 250.179L240.304 156.139C240.481 155.23 241.273 154.573 242.194 154.573H281.361C293.671 154.573 302.833 157.935 308.592 164.566C314.382 171.231 316.169 180.548 313.906 192.259C312.984 197.029 311.4 201.46 309.196 205.427C306.99 209.398 304.074 213.072 300.528 216.35C296.284 220.345 291.48 223.242 286.264 224.947C281.13 226.629 274.536 227.482 266.666 227.482H250.806L246.279 250.917C246.103 251.827 245.311 252.484 244.389 252.484H224.021Z" fill="black"/>
<path d="M262.866 175.22H273.648C282.258 175.22 285.249 177.12 286.265 178.252C287.952 180.132 288.27 184.096 287.186 189.715C285.968 196.006 283.71 200.467 280.477 202.971C277.165 205.535 271.781 206.835 264.476 206.835H256.757L262.866 175.22ZM281.361 152.637H242.194C240.351 152.637 238.767 153.951 238.416 155.77L220.243 249.809C220.024 250.944 220.32 252.118 221.051 253.01C221.782 253.903 222.871 254.419 224.021 254.419H244.389C246.232 254.419 247.816 253.105 248.168 251.286L252.393 229.417H266.667C274.738 229.417 281.533 228.532 286.861 226.787C292.34 224.996 297.383 221.96 301.844 217.763C305.534 214.349 308.573 210.517 310.876 206.372C313.179 202.225 314.834 197.601 315.795 192.627C318.178 180.301 316.242 170.43 310.041 163.292C303.9 156.222 294.251 152.637 281.361 152.637ZM252.087 210.706H264.476C272.688 210.706 278.805 209.15 282.824 206.039C286.845 202.926 289.555 197.732 290.964 190.452C292.313 183.463 291.699 178.531 289.122 175.658C286.543 172.785 281.386 171.348 273.648 171.348H259.693L252.087 210.706ZM281.361 156.509C293.144 156.509 301.74 159.618 307.143 165.839C312.545 172.059 314.172 180.742 312.016 191.889C311.129 196.481 309.628 200.679 307.516 204.483C305.401 208.289 302.639 211.769 299.226 214.925C295.159 218.753 290.641 221.481 285.669 223.106C280.697 224.735 274.365 225.546 266.667 225.546H249.22L244.389 250.548H224.021L242.194 156.509H281.361" fill="white"/>
<defs>
<radialGradient id="paint0_radial_85_15" cx="0" cy="0" r="1" gradientUnits="userSpaceOnUse" gradientTransform="translate(115.624 137.152) scale(232.909 234.248)">
<stop stop-color="#AEB2D5"/>
<stop offset="0.3" stop-color="#AEB2D5"/>
<stop offset="0.75" stop-color="#484C89"/>
<stop offset="1" stop-color="#484C89"/>
</radialGradient>
</defs>
</svg>
