<svg width="375" height="375" viewBox="0 0 375 375" fill="none" xmlns="http://www.w3.org/2000/svg">
<rect width="375" height="375" fill="white"/>
<path d="M186.078 43.0025C173.719 43.0599 161.917 44.1136 151.532 45.9507C120.939 51.3539 115.384 62.6632 115.384 83.5195V111.064H187.679V120.246H115.384H88.2526C67.2417 120.246 48.844 132.871 43.0894 156.888C36.4515 184.417 36.1571 201.596 43.0894 230.341C48.2284 251.737 60.5009 266.983 81.5118 266.983H106.368V233.963C106.368 210.108 127.014 189.066 151.532 189.066H223.742C243.843 189.066 259.89 172.52 259.89 152.339V83.5195C259.89 63.9329 243.361 49.2196 223.742 45.9507C211.323 43.884 198.437 42.9451 186.078 43.0025ZM146.982 65.1562C154.449 65.1562 160.547 71.3523 160.547 78.9708C160.547 86.5622 154.449 92.7011 146.982 92.7011C139.487 92.701 133.416 86.5622 133.416 78.9708C133.416 71.3523 139.487 65.1562 146.982 65.1562Z" fill="url(#paint0_linear_85_25)"/>
<path d="M268.905 120.246V152.339C268.905 177.221 247.804 198.163 223.742 198.163H151.532C131.752 198.163 115.384 215.087 115.384 234.889V303.709C115.384 323.296 132.421 334.817 151.532 340.436C174.416 347.163 196.361 348.378 223.742 340.436C241.943 335.168 259.89 324.566 259.89 303.709V276.165H187.679V266.983H259.89H296.037C317.048 266.983 324.878 252.332 332.185 230.341C339.732 207.701 339.411 185.93 332.185 156.888C326.992 135.978 317.075 120.246 296.037 120.246H268.905ZM228.292 294.528C235.787 294.528 241.858 300.667 241.858 308.258C241.858 315.877 235.787 322.073 228.292 322.073C220.825 322.073 214.726 315.877 214.726 308.258C214.726 300.667 220.825 294.528 228.292 294.528Z" fill="url(#paint1_linear_85_25)"/>
<defs>
<linearGradient id="paint0_linear_85_25" x1="38" y1="43" x2="204.663" y2="185.062" gradientUnits="userSpaceOnUse">
<stop stop-color="#5A9FD4"/>
<stop offset="1" stop-color="#306998"/>
</linearGradient>
<linearGradient id="paint1_linear_85_25" x1="226.555" y1="305.942" x2="166.771" y2="222.143" gradientUnits="userSpaceOnUse">
<stop stop-color="#FFD43B"/>
<stop offset="1" stop-color="#FFE873"/>
</linearGradient>
</defs>
</svg>
