<svg width="375" height="375" viewBox="0 0 375 375" fill="none" xmlns="http://www.w3.org/2000/svg">
<rect width="375" height="375" fill="white"/>
<path fill-rule="evenodd" clip-rule="evenodd" d="M187.223 292C86.2855 292 4.45923 237.271 4.45923 169.76C4.45923 102.248 86.2855 47.5187 187.223 47.5187C288.16 47.5187 369.986 102.248 369.986 169.76C369.986 237.271 288.16 292 187.223 292ZM215.198 95.3107C138.477 95.3107 76.2817 132.726 76.2817 178.88C76.2817 225.033 138.477 262.448 215.198 262.448C291.919 262.448 348.537 236.869 348.537 178.88C348.537 120.909 291.919 95.3107 215.198 95.3107Z" fill="url(#paint0_linear_85_23)"/>
<path fill-rule="evenodd" clip-rule="evenodd" d="M282.798 236.852C282.798 236.852 293.86 240.186 300.287 243.433C302.517 244.56 306.375 246.809 309.158 249.761C311.884 252.653 313.213 255.583 313.213 255.583L356.807 328.987L286.347 329.019L253.398 267.226C253.398 267.226 246.651 255.649 242.499 252.292C239.036 249.492 237.56 248.495 234.135 248.495C231.752 248.495 217.394 248.495 217.394 248.495L217.408 328.974L155.058 329.001V123.423H280.264C280.264 123.423 337.291 124.45 337.291 178.635C337.291 232.819 282.798 236.852 282.798 236.852ZM255.679 168.016L217.933 167.991L217.914 202.947L255.679 202.935C255.679 202.935 273.167 202.881 273.167 185.153C273.167 167.069 255.679 168.016 255.679 168.016Z" fill="url(#paint1_linear_85_23)"/>
<defs>
<linearGradient id="paint0_linear_85_23" x1="4.45923" y1="47.5187" x2="230.417" y2="385.351" gradientUnits="userSpaceOnUse">
<stop stop-color="#CBCED0"/>
<stop offset="1" stop-color="#84838B"/>
</linearGradient>
<linearGradient id="paint1_linear_85_23" x1="155.058" y1="123.423" x2="360.617" y2="325.136" gradientUnits="userSpaceOnUse">
<stop stop-color="#276DC3"/>
<stop offset="1" stop-color="#165CAA"/>
</linearGradient>
</defs>
</svg>
