<svg width="375" height="375" viewBox="0 0 375 375" fill="none" xmlns="http://www.w3.org/2000/svg">
<rect width="375" height="375" fill="white"/>
<g clip-path="url(#clip0_85_5)">
<path d="M191 210.453C207.54 210.453 220.948 197.043 220.948 180.5C220.948 163.957 207.54 150.547 191 150.547C174.46 150.547 161.052 163.957 161.052 180.5C161.052 197.043 174.46 210.453 191 210.453Z" fill="#61DAFB"/>
<path d="M191 241.868C279.75 241.868 351.696 214.393 351.696 180.5C351.696 146.607 279.75 119.132 191 119.132C102.25 119.132 30.3043 146.607 30.3043 180.5C30.3043 214.393 102.25 241.868 191 241.868Z" stroke="#61DAFB" stroke-width="14"/>
<path d="M137.864 211.184C182.239 288.058 242.001 336.638 271.348 319.692C300.694 302.746 288.511 226.69 244.136 149.816C199.761 72.9423 139.999 24.3615 110.652 41.3078C81.3058 58.254 93.4888 134.31 137.864 211.184Z" stroke="#61DAFB" stroke-width="14"/>
<path d="M137.864 149.816C93.4888 226.69 81.3058 302.746 110.652 319.692C139.999 336.638 199.761 288.058 244.136 211.184C288.511 134.31 300.694 58.254 271.348 41.3078C242.001 24.3615 182.239 72.9423 137.864 149.816Z" stroke="#61DAFB" stroke-width="14"/>
</g>
<defs>
<clipPath id="clip0_85_5">
<rect width="336" height="299" fill="white" transform="translate(23 31)"/>
</clipPath>
</defs>
</svg>
